# xmcd
#
# Track frame offsets:
#	150
#	10312
#	25425
#	38466
#	49008
#	65992
#	77555
#	86559
#	96349
#	106854
#	120516
#	133477
#	148012
#	158908
#	163315
#	173507
#	178137
#
# Disc length: 2571 seconds
#
# Revision: 2
# Processed by: cddbd v1.5.2PL0 Copyright (c) Steve Scherf et al.
# Submitted via: audiograbber 1.83.01
#
DISCID=e70a0911
DTITLE=Various Artist - A Liadl, a G'sangl a Musi dazua
DYEAR=2008
DGENRE=Folklore
TTITLE0=Hochanger Dreigesang - Griaß di Gott Dirndl
TTITLE1=Ziamwiam - Knödl-Alm Polka (Klaus Neuper)
TTITLE2=Hochanger Dreigesang - Hiaz kimmt de schene Fruahjoahrszeit
TTITLE3=Hochanger Dreigesang - I gfrei mi auf'n Summa
TTITLE4=Höller Hausmusi - Viertelüber-Walzer (Klaus Karl)
TTITLE5=Hochanger Dreigesang - Lebfrischer Bua
TTITLE6=Strassner Bläser - Mariandl Jodler (Ludwig Egger)
TTITLE7=Hochanger Dreigesang - Und a Almhüttn
TTITLE8=Hochanger Dreigesang - Jaga hiaz kunnst wieda kema
TTITLE9=Ziamwiam - Jabistu (Klaus Neuper)
TTITLE10=Hochanger Dreigesang - 7 Berg und 7Tal
TTITLE11=Höller Hausmusi - Tiroler-Polka
TTITLE12=Hochanger Dreigesang - Mein Schatz is a Jaga
TTITLE13=Hochanger Dreigesang - Holariti
TTITLE14=Strassner Bläser - In Weissenbach zua
TTITLE15=Strassner Bläser - An Jodler drauf (Ludwig Egger)
TTITLE16=Hochanger Dreigesang - Oba aus is mit'n Summa
EXTD=
EXTT0=
EXTT1=
EXTT2=
EXTT3=
EXTT4=
EXTT5=
EXTT6=
EXTT7=
EXTT8=
EXTT9=
EXTT10=
EXTT11=
EXTT12=
EXTT13=
EXTT14=
EXTT15=
EXTT16=
PLAYORDER=
